<svg width="2769" height="1668" xmlns="http://www.w3.org/2000/svg" xmlns:xlink="http://www.w3.org/1999/xlink" xml:space="preserve" overflow="hidden"><g transform="translate(-595 -275)"><g><path d="M2927 1100.13 2638.69 1244.25 2638.69 1624.75 2927 1768.87 3215.31 1624.75 3215.31 1244.25ZM2927 930 3362 1147.46 3362 1721.54 2927 1939 2492 1721.54 2492 1147.46Z" fill="#FFFFFF" fill-rule="evenodd" fill-opacity="1"/><path d="M2204 1100.13 1915.69 1244.25 1915.69 1624.75 2204 1768.87 2492.31 1624.75 2492.31 1244.25ZM2204 930 2639 1147.46 2639 1721.54 2204 1939 1769 1721.54 1769 1147.46Z" fill="#FFFFFF" fill-rule="evenodd" fill-opacity="1"/><path d="M2565 446.126 2276.69 590.252 2276.69 970.747 2565 1114.87 2853.31 970.747 2853.31 590.252ZM2565 276 3000 493.457 3000 1067.54 2565 1285 2130 1067.54 2130 493.457Z" fill="#FFFFFF" fill-rule="evenodd" fill-opacity="1"/><text fill="#FFFFFF" fill-opacity="1" font-family="Consolas,Consolas_MSFontService,sans-serif" font-style="normal" font-variant="normal" font-weight="700" font-stretch="normal" font-size="403" text-anchor="start" direction="ltr" writing-mode="lr-tb" unicode-bidi="normal" text-decoration="none" transform="matrix(1 0 0 1 842.068 826)">swex</text><text fill="#FFFFFF" fill-opacity="1" font-family="Consolas,Consolas_MSFontService,sans-serif" font-style="normal" font-variant="normal" font-weight="700" font-stretch="normal" font-size="403" text-anchor="start" direction="ltr" writing-mode="lr-tb" unicode-bidi="normal" text-decoration="none" transform="matrix(1 0 0 1 1732.61 826)">_</text></g></g></svg>